HIERARCHY
ROOT Hips
{
	OFFSET	8.3386	89.6931	-13.3114
	CHANNELS 6 Xposition Yposition Zposition Zrotation Yrotation Xrotation
	JOINT Chest
	{
		OFFSET	0.0000	16.3830	0.0000
		CHANNELS 3 Zrotation Yrotation Xrotation
		JOINT LeftCollar
		{
			OFFSET	3.8100	32.7660	-3.8100
			CHANNELS 3 Zrotation Yrotation Xrotation
			JOINT LeftUpArm
			{
				OFFSET	14.5367	0.0000	3.8951
				CHANNELS 3 Zrotation Yrotation Xrotation
				JOINT LeftLowArm
				{
					OFFSET	30.2895	0.0000	0.0000
					CHANNELS 3 Zrotation Yrotation Xrotation
					JOINT LeftHand
					{
						OFFSET	27.2415	0.0000	0.0000
						CHANNELS 3 Zrotation Yrotation Xrotation
						End Site
						{
							OFFSET	20.3835	0.0000	0.0000
						}
					}
				}
			}
		}
		JOINT Neck
		{
			OFFSET	0.0000	32.7660	0.0000
			CHANNELS 3 Zrotation Yrotation Xrotation
			JOINT Head
			{
				OFFSET	0.0000	19.6215	0.0000
				CHANNELS 3 Zrotation Yrotation Xrotation
				End Site
				{
					OFFSET	0.0000	0.0000	10.1600
				}
			}
		}
		JOINT RightCollar
		{
			OFFSET	-3.8100	32.7660	-3.8100
			CHANNELS 3 Zrotation Yrotation Xrotation
			JOINT RightUpArm
			{
				OFFSET	-14.5367	0.0000	3.8951
				CHANNELS 3 Zrotation Yrotation Xrotation
				JOINT RightLowArm
				{
					OFFSET	-30.2895	0.0000	0.0000
					CHANNELS 3 Zrotation Yrotation Xrotation
					JOINT RightHand
					{
						OFFSET	-27.2415	0.0000	0.0000
						CHANNELS 3 Zrotation Yrotation Xrotation
						End Site
						{
							OFFSET	-20.3835	0.0000	0.0000
						}
					}
				}
			}
		}
	}
	JOINT LeftUpLeg
	{
		OFFSET	9.3345	0.0000	0.0000
		CHANNELS 3 Zrotation Yrotation Xrotation
		JOINT LeftLowLeg
		{
			OFFSET	0.0000	-45.5295	0.0000
			CHANNELS 3 Zrotation Yrotation Xrotation
			JOINT LeftFoot
			{
				OFFSET	0.0000	-44.1960	0.0000
				CHANNELS 3 Zrotation Yrotation Xrotation
				End Site
				{
					OFFSET	0.0000	0.0000	26.4795
				}
			}
		}
	}
	JOINT RightUpLeg
	{
		OFFSET	-9.3345	0.0000	0.0000
		CHANNELS 3 Zrotation Yrotation Xrotation
		JOINT RightLowLeg
		{
			OFFSET	0.0000	-45.5295	0.0000
			CHANNELS 3 Zrotation Yrotation Xrotation
			JOINT RightFoot
			{
				OFFSET	0.0000	-44.1960	0.0000
				CHANNELS 3 Zrotation Yrotation Xrotation
				End Site
				{
					OFFSET	0.0000	0.0000	26.4795
				}
			}
		}
	}
}
MOTION
Frames: 15
Frame Time: 0.0166666666667
2.4485	88.4614	168.3558	-0.5334	-3.3695	-0.8081	3.2091	7.5580	5.2527	-7.7150	-6.9495	-1.9212	-58.9776	6.8321	39.2592	-0.3494	-8.8603	18.3796	-7.7371	-1.5227	-16.5238	-0.0403	4.2848	-0.4918	-0.0403	4.2848	-0.4918	6.6126	1.0641	-1.1264	60.7813	20.1229	26.6343	-64.1685	75.4614	-50.2775	5.2726	22.8664	-15.6306	9.9993	-11.0689	-24.6314	-3.2501	15.0240	-4.3909	-4.3021	4.2005	-9.9068	-0.8057	-1.7516	6.3478	-0.4583	-2.1648	8.4066	-0.0769	5.9438	-6.9583	
2.8764	88.1173	170.0475	-0.7486	-3.5862	-1.1495	3.4135	8.2335	5.5886	-7.7107	-6.6997	-1.9610	-58.8691	6.7505	39.6380	-0.5486	-8.7083	17.7291	-8.1854	-1.8827	-16.2707	-0.0212	4.2136	-0.5289	-0.0212	4.2136	-0.5289	6.6623	1.1419	-1.0982	60.6398	20.1304	26.0316	-66.9782	75.7117	-52.9605	5.4215	22.9134	-15.6941	10.0366	-11.1673	-24.3084	-3.0792	14.2686	-5.2383	-4.1218	5.1523	-9.6161	-1.2009	-2.0134	7.3395	-0.1923	-1.7588	9.0189	0.2071	6.1865	-6.9146	
3.3358	87.7772	171.5459	-0.9375	-3.7593	-1.4540	3.6020	8.8397	5.8542	-7.6585	-6.8274	-1.9348	-59.1499	7.4102	38.1240	-0.3880	-8.8646	18.5659	-8.6779	-2.1640	-15.7941	0.0079	4.1428	-0.5346	0.0079	4.1428	-0.5346	6.7669	1.1845	-1.1067	60.4619	19.9598	25.5569	-68.8261	75.8736	-54.7044	5.6118	22.7762	-15.7013	10.4568	-11.2665	-24.4953	-3.0925	14.7024	-3.6232	-4.1913	5.0813	-10.5088	-1.4897	-2.1283	8.0858	0.0177	-1.4295	9.5852	0.4106	6.3375	-6.3481	
3.7037	87.4885	172.6762	-1.0566	-3.8573	-1.6995	3.7213	9.2575	6.0263	-7.7403	-6.1663	-2.3045	-59.1034	7.5636	38.3339	-0.4839	-8.7872	18.5979	-9.0826	-2.3197	-15.2916	0.0386	4.1214	-0.5194	0.0386	4.1214	-0.5194	6.8667	1.0709	-1.0999	60.4047	19.7960	25.4464	-69.0121	75.8325	-54.8088	5.8211	22.6759	-15.5238	11.1632	-11.9313	-25.1697	-3.0666	16.0374	-1.1069	-4.3527	4.8013	-11.2596	-1.7037	-2.1808	8.6542	-0.1546	-1.0767	11.5029	0.6319	6.3800	-6.7065	
4.0641	86.9113	174.6204	-1.1155	-3.8687	-1.9123	3.7183	9.5474	6.0902	-7.7225	-6.0257	-2.4071	-59.1737	7.7094	38.0311	-0.5811	-8.7387	18.6536	-9.8216	-2.5281	-14.7968	0.1071	4.0753	-0.4739	0.1071	4.0753	-0.4739	7.0704	1.4947	-1.1489	60.2166	19.0736	25.2122	-68.1809	75.4786	-53.8689	6.0200	22.6252	-15.2290	12.2134	-13.1672	-25.9154	-3.3711	18.0394	2.3713	-4.3092	4.3333	-12.5258	-1.8961	-2.2125	9.1559	-0.2455	-0.7688	12.9662	0.5857	6.2888	-6.1677	
4.3261	86.4139	176.1446	-1.1599	-3.8370	-2.1592	3.7173	9.7550	6.2030	-7.6666	-5.8550	-2.7018	-59.3557	7.9307	37.8104	-0.6088	-8.7186	18.8913	-10.4602	-2.6594	-14.2820	0.1658	4.0243	-0.4495	0.1658	4.0243	-0.4495	7.2005	1.6675	-1.1699	60.2090	18.4334	25.1894	-67.6388	75.1966	-53.1658	6.3443	22.0806	-14.8603	12.8406	-14.1665	-26.2626	-3.7289	19.2440	4.8509	-4.4535	4.3077	-12.6501	-2.0377	-2.2559	9.6176	-0.4083	-0.5785	14.4373	0.3655	6.2241	-5.5354	
4.5468	85.9059	177.5395	-1.1849	-3.8085	-2.3971	3.5922	9.9020	6.1534	-7.6173	-5.7971	-2.8233	-59.3150	8.1713	37.9420	-0.6909	-8.8451	18.8354	-10.9179	-2.8150	-13.8435	0.2760	3.9685	-0.3700	0.2760	3.9685	-0.3700	7.4220	1.6461	-1.0146	60.3541	17.7562	25.4308	-62.4196	74.6317	-47.8664	6.1082	22.3649	-14.1337	12.9225	-14.6205	-26.2387	-3.9959	20.2486	6.4458	-3.5448	3.8006	-11.5468	-2.7780	-2.4167	10.4519	-0.0193	-0.1952	15.5928	-0.0960	6.0932	-4.6846	
5.1550	85.2848	179.2796	-1.1244	-3.8069	-2.7501	3.3849	9.9675	6.0842	-7.6369	-5.7692	-2.6905	-59.3563	8.3178	37.8089	-0.7645	-8.9096	18.9922	-10.9620	-2.6675	-13.6514	0.3812	3.9333	-0.2252	0.3812	3.9333	-0.2252	7.7035	1.8787	-1.0820	60.3784	16.7274	25.5952	-55.2817	73.9586	-40.9212	5.2686	23.7167	-13.4328	11.4225	-14.0999	-25.0790	-3.6421	19.4629	6.4536	-2.5648	3.8470	-10.7612	-3.2803	-2.4303	10.9571	0.1612	0.0139	16.7771	-0.8921	5.8037	-2.1720	
5.5254	84.8284	180.3679	-0.7065	-3.7419	-2.8050	2.7762	9.9545	5.7441	-7.7490	-5.7796	-2.4265	-59.6744	7.9918	37.7734	-0.8088	-8.5737	19.0075	-10.8740	-2.8201	-13.4355	0.4527	3.8990	-0.0941	0.4527	3.8990	-0.0941	7.9087	1.8185	-0.8628	60.4621	15.8907	25.8619	-49.6819	73.4249	-35.5232	5.1809	22.5245	-11.4357	10.4853	-13.7766	-24.6530	-3.5709	18.5317	6.4918	-0.6997	4.1178	-4.7303	-3.9323	-2.3185	10.8719	0.0987	0.0229	18.4534	-1.1665	5.4562	-0.3153	
5.8426	84.3610	181.3803	-0.0800	-3.5644	-1.9537	1.7705	9.8526	4.3864	-7.9405	-5.9323	-2.0958	-59.7713	7.5137	38.0398	-0.9563	-8.1420	18.8180	-10.5797	-2.8365	-13.5047	0.5380	3.8440	0.0879	0.5380	3.8440	0.0879	8.1143	1.9128	-0.9909	60.5597	14.2144	26.0602	-40.7849	71.7725	-26.5557	3.7452	25.2529	-10.7712	6.6412	-10.6744	-23.3409	-2.7755	13.3478	7.5375	-0.0344	5.0336	-5.9028	-4.6836	-2.5297	9.8391	-0.8037	-0.3680	22.2450	-0.9289	5.6755	1.4600	
5.8426	83.6078	181.3803	0.6264	-3.2523	-1.2273	0.7791	9.5342	3.2930	-8.0725	-6.0101	-1.9096	-59.9418	6.9409	38.5309	-0.9895	-7.7330	18.6225	-10.3214	-2.8381	-13.5053	0.5733	3.7640	0.2145	0.5733	3.7640	0.2145	8.1940	1.9688	-0.9023	60.7768	12.9907	25.9881	-34.8318	70.3939	-20.3694	3.9047	23.3648	-8.9190	4.5455	-9.4444	-23.0297	-2.0914	11.6926	8.6237	0.4232	4.5060	-3.1071	-6.3566	-2.9334	8.0609	-0.5059	-0.8634	24.9592	-0.6853	6.1709	4.9522	
6.2281	84.2210	183.5564	1.3628	-2.6544	-1.1839	-0.1133	8.8178	3.0562	-8.1293	-6.0782	-1.8885	-60.1105	6.5436	38.8741	-0.9739	-7.5547	18.6170	-10.0307	-2.7909	-13.2822	0.6031	3.6964	0.2612	0.6031	3.6964	0.2612	8.2311	2.0665	-0.8931	61.2227	11.9038	25.7563	-28.4675	68.5450	-13.4919	3.0622	24.0108	-8.2605	3.2517	-9.0130	-22.9531	-1.9816	10.1992	10.9243	0.1824	4.8559	-4.2801	-8.0885	-3.3129	6.8290	-0.8819	-2.4565	28.8402	-0.3695	7.9159	5.0758	
6.1716	84.5777	185.5210	1.9914	-1.9617	-1.5521	-0.8406	7.9099	3.4717	-8.1008	-6.2047	-2.0394	-60.6046	5.3893	40.2418	-0.6184	-7.8726	18.3041	-10.2811	-1.9812	-13.5183	0.5252	3.6008	0.2407	0.5252	3.6008	0.2407	8.2272	2.2166	-1.0293	61.5342	11.4697	25.7292	-21.4094	65.0639	-6.6370	2.9615	23.0069	-7.4582	2.5098	-8.7554	-21.4034	-3.0430	8.3983	11.8896	0.2503	5.9035	-4.3694	-9.7045	-3.7075	5.7717	-0.8666	-3.3850	32.5028	0.9492	7.9588	14.5594	
5.9049	85.1705	188.1870	2.4206	-1.4268	-1.9047	-1.5815	7.0444	4.3094	-7.8474	-6.3366	-2.4920	-60.9862	4.3123	41.4171	-0.3277	-7.9368	17.4756	-10.2152	-1.5681	-13.0717	0.3213	3.4328	0.0799	0.3213	3.4328	0.0799	8.2762	2.3340	-1.0317	62.6833	9.1060	25.2525	-18.7351	63.8461	-2.6930	2.5902	22.9608	-6.7319	1.6997	-8.2377	-20.1486	-3.6122	6.7488	12.6478	0.0687	6.7470	-1.8303	-10.9359	-3.9716	4.7532	-0.9098	-3.6173	36.0852	2.5190	7.3795	20.2536	
5.8192	85.5567	190.1571	2.7744	-1.0870	-2.1344	-2.2007	6.3640	4.9396	-7.6240	-6.5700	-2.7866	-61.4269	3.2472	42.4574	-0.1416	-7.6753	16.4433	-9.6981	-1.6284	-12.3001	0.1734	3.3430	-0.0559	0.1734	3.3430	-0.0559	8.3320	2.3945	-1.0951	63.0560	9.0189	25.3905	-15.0754	60.5469	0.5864	2.2083	22.8273	-5.9000	1.0416	-7.9738	-19.5066	-3.6631	5.9942	13.4031	-0.0174	6.8362	-1.4944	-11.6540	-4.1402	4.3048	-1.1117	-3.1308	38.6518	3.4865	6.6437	21.8195	
